<?xml version="1.0" encoding="UTF-8" standalone="no"?> <svg xmlns="http://www.w3.org/2000/svg" viewBox="0 0 64 64"><title>palette, paint, art, paintbrush, color, </title><g id="Flat"><path d="M36,33.661c4.753.875,11-.079,11,4.339A21,21,0,1,1,26,17c4.28,0,3.429,6.28,4.313,11" style="fill:#d3d3d3"/><path d="M31.658,36A5.992,5.992,0,1,1,28,32.342" style="fill:#f2f2f2"/><path d="M43.849,14.494C49.9,8.441,56.075,4.8,57.638,6.362S55.559,14.1,49.506,20.151c-1.372,1.371-2.743,2.616-4.073,3.705-1.124.926-2.22,1.739-3.238,2.418-3.1,2.065-5.565,2.92-6.477,2.008s-.057-3.38,2.008-6.477c.679-1.018,1.492-2.114,2.418-3.238C41.233,17.237,42.478,15.865,43.849,14.494Z" style="fill:#f9c693"/><path d="M30.061,28.282a4,4,0,0,1,5.657,5.657c-1.562,1.562-8.486,2.829-8.486,2.829S28.5,29.844,30.061,28.282Z" style="fill:#c7b299"/><path d="M40.144,18.567l5.289,5.289c-1.124.926-2.22,1.739-3.238,2.418l-4.469-4.469C38.405,20.787,39.218,19.691,40.144,18.567Z" style="fill:#dda373"/><circle cx="16" cy="29" r="3" style="fill:#efd96a"/><circle cx="12" cy="38" r="3" style="fill:#39b54a"/><circle cx="16" cy="48" r="3" style="fill:#29abe2"/><circle cx="26" cy="52" r="3" style="fill:#f15a24"/><circle cx="36" cy="48" r="3" style="fill:#f164f9"/><rect x="23" y="21" width="2" height="2" style="fill:#f2f2f2"/><rect x="25" y="23" width="2" height="2" style="fill:#f2f2f2"/><rect x="21" y="23" width="2" height="2" style="fill:#f2f2f2"/><rect x="39" y="37" width="2" height="2" style="fill:#f2f2f2"/><rect x="41" y="39" width="2" height="2" style="fill:#f2f2f2"/><rect x="37" y="39" width="2" height="2" style="fill:#f2f2f2"/></g></svg>